# xmcd CD database file
#
# Track frame offsets:
#	182
#	24337
#	66157
#	85887
#	127532
#	154877
#	203807
#	225965
#	260897
#	287430
#
# Disc length: 4377 seconds
#
# Revision: 3
# Processed by: cddbd v1.5.2PL0 Copyright (c) Steve Scherf et al.
# Submitted via: CDex 1.50
#
DISCID=7a11170a
DTITLE=Luther Allison - Live In Paris
DYEAR=1979
DGENRE=Blues
TTITLE0=Crazy Jealous
TTITLE1=Sweet Little Angel
TTITLE2=My Babe
TTITLE3=The Thrill Is Gone
TTITLE4=Early In The Morning
TTITLE5=Tribute To Hound Dog
TTITLE6=Luther's Shuffle
TTITLE7=I Can't Quit You Babe
TTITLE8=I'm Leavin'
TTITLE9=Rock Me Baby
EXTD=YEAR: 1979
EXTT0=
EXTT1=
EXTT2=
EXTT3=
EXTT4=
EXTT5=
EXTT6=
EXTT7=
EXTT8=
EXTT9=
PLAYORDER=
